<svg width="228" height="34" viewBox="0 0 228 34" fill="none" xmlns="http://www.w3.org/2000/svg">
<path d="M2.05694 27V7.4H11.4929C13.3223 7.4 14.8996 7.69867 16.2249 8.296C17.5689 8.89333 18.6049 9.752 19.3329 10.872C20.0609 11.9733 20.4249 13.28 20.4249 14.792C20.4249 16.304 20.0609 17.6107 19.3329 18.712C18.6049 19.7947 17.5689 20.6253 16.2249 21.204C14.8996 21.7827 13.3223 22.072 11.4929 22.072H5.72494L8.66494 19.356V27H2.05694ZM13.7889 27L8.97294 19.86H15.9729L20.8449 27H13.7889ZM8.66494 20.084L5.72494 17.088H11.0729C11.9876 17.088 12.6596 16.8827 13.0889 16.472C13.5369 16.0613 13.7609 15.5013 13.7609 14.792C13.7609 14.0827 13.5369 13.5227 13.0889 13.112C12.6596 12.7013 11.9876 12.496 11.0729 12.496H5.72494L8.66494 9.5V20.084ZM22.7242 27V11.684H29.0522V27H22.7242ZM25.8882 10.452C24.7309 10.452 23.8069 10.144 23.1162 9.528C22.4256 8.912 22.0802 8.14667 22.0802 7.232C22.0802 6.31733 22.4256 5.552 23.1162 4.936C23.8069 4.32 24.7309 4.012 25.8882 4.012C27.0456 4.012 27.9696 4.30133 28.6602 4.88C29.3509 5.45867 29.6962 6.20533 29.6962 7.12C29.6962 8.09067 29.3509 8.89333 28.6602 9.528C27.9696 10.144 27.0456 10.452 25.8882 10.452ZM38.577 27.28C37.2517 27.28 36.0197 26.9627 34.881 26.328C33.761 25.6747 32.865 24.76 32.193 23.584C31.521 22.3893 31.185 20.9707 31.185 19.328C31.185 17.6853 31.521 16.276 32.193 15.1C32.865 13.9053 33.761 12.9907 34.881 12.356C36.0197 11.7213 37.2517 11.404 38.577 11.404C39.921 11.404 41.0224 11.6933 41.881 12.272C42.7397 12.832 43.3744 13.7 43.785 14.876C44.1957 16.0333 44.401 17.5173 44.401 19.328C44.401 21.1573 44.205 22.66 43.813 23.836C43.4397 25.012 42.8237 25.88 41.965 26.44C41.125 27 39.9957 27.28 38.577 27.28ZM40.089 22.352C40.5557 22.352 40.9757 22.24 41.349 22.016C41.7224 21.792 42.021 21.456 42.245 21.008C42.469 20.5413 42.581 19.9813 42.581 19.328C42.581 18.656 42.469 18.1053 42.245 17.676C42.021 17.228 41.7224 16.892 41.349 16.668C40.9757 16.444 40.5557 16.332 40.089 16.332C39.6224 16.332 39.2024 16.444 38.829 16.668C38.4557 16.892 38.157 17.228 37.933 17.676C37.709 18.1053 37.597 18.656 37.597 19.328C37.597 19.9813 37.709 20.5413 37.933 21.008C38.157 21.456 38.4557 21.792 38.829 22.016C39.2024 22.24 39.6224 22.352 40.089 22.352ZM42.777 27V24.928L42.749 19.328L42.469 13.728V6.224H48.797V27H42.777ZM55.3512 27L50.0312 11.684H56.0232L60.0552 24.116H57.1712L61.3992 11.684H66.7752L70.8072 24.116H68.0072L72.1792 11.684H77.7232L72.4032 27H66.2432L63.0232 17.144H64.8712L61.5112 27H55.3512ZM87.6641 27V24.284L87.2161 23.556V18.404C87.2161 17.6573 86.9828 17.088 86.5161 16.696C86.0681 16.304 85.3308 16.108 84.3041 16.108C83.6134 16.108 82.9134 16.22 82.2041 16.444C81.4948 16.6493 80.8881 16.9387 80.3841 17.312L78.3681 13.14C79.2641 12.58 80.3374 12.1507 81.5881 11.852C82.8388 11.5533 84.0614 11.404 85.2561 11.404C87.8881 11.404 89.9228 11.992 91.3601 13.168C92.8161 14.344 93.5441 16.2107 93.5441 18.768V27H87.6641ZM83.3241 27.28C82.0734 27.28 81.0281 27.0653 80.1881 26.636C79.3481 26.2067 78.7134 25.6373 78.2841 24.928C77.8548 24.2 77.6401 23.3973 77.6401 22.52C77.6401 21.5307 77.8921 20.6907 78.3961 20C78.9001 19.3093 79.6654 18.7867 80.6921 18.432C81.7374 18.0773 83.0534 17.9 84.6401 17.9H87.8321V20.952H85.6481C84.9761 20.952 84.4814 21.064 84.1641 21.288C83.8654 21.4933 83.7161 21.8107 83.7161 22.24C83.7161 22.5947 83.8468 22.8933 84.1081 23.136C84.3881 23.36 84.7614 23.472 85.2281 23.472C85.6574 23.472 86.0494 23.36 86.4041 23.136C86.7774 22.8933 87.0481 22.52 87.2161 22.016L88.0281 23.892C87.7854 25.0307 87.2721 25.88 86.4881 26.44C85.7041 27 84.6494 27.28 83.3241 27.28ZM106.919 11.404C108.095 11.404 109.159 11.6467 110.111 12.132C111.063 12.5987 111.81 13.336 112.351 14.344C112.911 15.352 113.191 16.6587 113.191 18.264V27H106.863V19.356C106.863 18.404 106.695 17.732 106.359 17.34C106.023 16.9293 105.566 16.724 104.987 16.724C104.558 16.724 104.156 16.8267 103.783 17.032C103.428 17.2187 103.139 17.536 102.915 17.984C102.71 18.432 102.607 19.0387 102.607 19.804V27H96.2789V11.684H102.299V16.164L101.095 14.876C101.692 13.7187 102.495 12.8507 103.503 12.272C104.53 11.6933 105.668 11.404 106.919 11.404Z" fill="white"/>
<path d="M129.261 14.988H138.361V19.132H129.261V14.988ZM129.653 22.716H139.901V27H124.165V7.4H139.537V11.684H129.653V22.716ZM143.342 27V11.992C143.342 10.1627 143.883 8.70667 144.966 7.624C146.067 6.52267 147.635 5.972 149.67 5.972C150.323 5.972 150.967 6.03733 151.602 6.168C152.236 6.29867 152.768 6.49467 153.198 6.756L151.882 10.508C151.658 10.3773 151.406 10.2747 151.126 10.2C150.846 10.1067 150.566 10.06 150.286 10.06C149.726 10.06 149.287 10.228 148.97 10.564C148.671 10.8813 148.522 11.376 148.522 12.048V13.14L148.662 15.352V27H143.342ZM141.13 16.36V12.384H152.134V16.36H141.13ZM161.889 27.252C160.097 27.252 158.529 26.916 157.185 26.244C155.859 25.5533 154.823 24.62 154.077 23.444C153.349 22.2493 152.985 20.896 152.985 19.384C152.985 17.872 153.339 16.528 154.049 15.352C154.777 14.1573 155.775 13.2333 157.045 12.58C158.314 11.908 159.742 11.572 161.329 11.572C162.822 11.572 164.185 11.88 165.417 12.496C166.649 13.0933 167.629 13.98 168.357 15.156C169.085 16.332 169.449 17.76 169.449 19.44C169.449 19.6267 169.439 19.8413 169.421 20.084C169.402 20.3267 169.383 20.5507 169.365 20.756H157.353V17.956H166.537L164.521 18.74C164.539 18.0493 164.409 17.452 164.129 16.948C163.867 16.444 163.494 16.052 163.009 15.772C162.542 15.492 161.991 15.352 161.357 15.352C160.722 15.352 160.162 15.492 159.677 15.772C159.21 16.052 158.846 16.4533 158.585 16.976C158.323 17.48 158.193 18.0773 158.193 18.768V19.58C158.193 20.3267 158.342 20.9707 158.641 21.512C158.958 22.0533 159.406 22.4733 159.985 22.772C160.563 23.052 161.254 23.192 162.057 23.192C162.803 23.192 163.438 23.0893 163.961 22.884C164.502 22.66 165.034 22.324 165.557 21.876L168.357 24.788C167.629 25.5907 166.733 26.2067 165.669 26.636C164.605 27.0467 163.345 27.252 161.889 27.252ZM181.785 11.572C182.961 11.572 184.025 11.8147 184.977 12.3C185.929 12.7667 186.676 13.4947 187.217 14.484C187.777 15.4733 188.057 16.752 188.057 18.32V27H182.737V19.188C182.737 18.1053 182.513 17.3213 182.065 16.836C181.636 16.332 181.029 16.08 180.245 16.08C179.685 16.08 179.172 16.2107 178.705 16.472C178.239 16.7147 177.875 17.0973 177.613 17.62C177.352 18.1427 177.221 18.824 177.221 19.664V27H171.901V11.824H176.969V16.136L175.989 14.876C176.568 13.7747 177.361 12.9533 178.369 12.412C179.377 11.852 180.516 11.572 181.785 11.572ZM198.197 27.252C196.816 27.252 195.556 26.9347 194.417 26.3C193.297 25.6467 192.401 24.7413 191.729 23.584C191.057 22.408 190.721 21.008 190.721 19.384C190.721 17.7787 191.057 16.3973 191.729 15.24C192.401 14.064 193.297 13.1587 194.417 12.524C195.556 11.8893 196.816 11.572 198.197 11.572C199.504 11.572 200.605 11.852 201.501 12.412C202.416 12.972 203.106 13.8307 203.573 14.988C204.04 16.1453 204.273 17.6107 204.273 19.384C204.273 21.1947 204.049 22.6787 203.601 23.836C203.153 24.9933 202.481 25.852 201.585 26.412C200.689 26.972 199.56 27.252 198.197 27.252ZM199.317 23.024C199.914 23.024 200.446 22.884 200.913 22.604C201.398 22.324 201.781 21.9133 202.061 21.372C202.341 20.812 202.481 20.1493 202.481 19.384C202.481 18.6187 202.341 17.9747 202.061 17.452C201.781 16.9107 201.398 16.5 200.913 16.22C200.446 15.94 199.914 15.8 199.317 15.8C198.701 15.8 198.15 15.94 197.665 16.22C197.198 16.5 196.825 16.9107 196.545 17.452C196.265 17.9747 196.125 18.6187 196.125 19.384C196.125 20.1493 196.265 20.812 196.545 21.372C196.825 21.9133 197.198 22.324 197.665 22.604C198.15 22.884 198.701 23.024 199.317 23.024ZM202.649 27V24.396L202.677 19.384L202.397 14.372V6.224H207.717V27H202.649ZM213.744 32.684C212.941 32.684 212.129 32.5533 211.308 32.292C210.505 32.0493 209.852 31.7227 209.348 31.312L211.196 27.588C211.513 27.868 211.877 28.0827 212.288 28.232C212.717 28.4 213.137 28.484 213.548 28.484C214.126 28.484 214.584 28.3533 214.92 28.092C215.256 27.8307 215.545 27.42 215.788 26.86L216.488 25.096L216.908 24.564L222.06 11.824H227.128L220.576 27.616C220.053 28.9227 219.446 29.94 218.756 30.668C218.084 31.4147 217.328 31.9373 216.488 32.236C215.666 32.5347 214.752 32.684 213.744 32.684ZM215.816 27.644L209.124 11.824H214.584L219.512 24.088L215.816 27.644Z" fill="#FF8C32"/>
</svg>
